<svg width="103" height="112" viewBox="0 0 103 112" fill="none" xmlns="http://www.w3.org/2000/svg">
<path d="M31.9018 77L26.0018 69.25V77H21.7268V59.45H26.0018V67.15L31.8518 59.45H36.8768L30.0768 68.05L37.1268 77H31.9018ZM43.4334 59.45V77H39.1584V59.45H43.4334ZM62.2314 77H57.9564L50.8064 66.175V77H46.5314V59.45H50.8064L57.9564 70.325V59.45H62.2314V77ZM76.9803 65C76.6636 64.4167 76.2053 63.975 75.6053 63.675C75.0219 63.3583 74.3303 63.2 73.5303 63.2C72.1469 63.2 71.0386 63.6583 70.2053 64.575C69.3719 65.475 68.9553 66.6833 68.9553 68.2C68.9553 69.8167 69.3886 71.0833 70.2553 72C71.1386 72.9 72.3469 73.35 73.8803 73.35C74.9303 73.35 75.8136 73.0833 76.5303 72.55C77.2636 72.0167 77.7969 71.25 78.1303 70.25H72.7053V67.1H82.0053V71.075C81.6886 72.1417 81.1469 73.1333 80.3803 74.05C79.6303 74.9667 78.6719 75.7083 77.5053 76.275C76.3386 76.8417 75.0219 77.125 73.5553 77.125C71.8219 77.125 70.2719 76.75 68.9053 76C67.5553 75.2333 66.4969 74.175 65.7303 72.825C64.9803 71.475 64.6053 69.9333 64.6053 68.2C64.6053 66.4667 64.9803 64.925 65.7303 63.575C66.4969 62.2083 67.5553 61.15 68.9053 60.4C70.2553 59.6333 71.7969 59.25 73.5303 59.25C75.6303 59.25 77.3969 59.7583 78.8303 60.775C80.2803 61.7917 81.2386 63.2 81.7053 65H76.9803Z" fill="white"/>
<path d="M8.09385 102.175C6.81051 102.175 5.66051 101.967 4.64385 101.55C3.62718 101.133 2.81051 100.517 2.19385 99.7C1.59385 98.8833 1.27718 97.9 1.24385 96.75H5.79385C5.86051 97.4 6.08551 97.9 6.46885 98.25C6.85218 98.5833 7.35218 98.75 7.96885 98.75C8.60218 98.75 9.10218 98.6083 9.46885 98.325C9.83551 98.025 10.0188 97.6167 10.0188 97.1C10.0188 96.6667 9.86885 96.3083 9.56885 96.025C9.28551 95.7417 8.92718 95.5083 8.49385 95.325C8.07718 95.1417 7.47718 94.9333 6.69385 94.7C5.56051 94.35 4.63551 94 3.91885 93.65C3.20218 93.3 2.58551 92.7833 2.06885 92.1C1.55218 91.4167 1.29385 90.525 1.29385 89.425C1.29385 87.7917 1.88551 86.5167 3.06885 85.6C4.25218 84.6667 5.79385 84.2 7.69385 84.2C9.62718 84.2 11.1855 84.6667 12.3688 85.6C13.5522 86.5167 14.1855 87.8 14.2688 89.45H9.64385C9.61051 88.8833 9.40218 88.4417 9.01885 88.125C8.63551 87.7917 8.14385 87.625 7.54385 87.625C7.02718 87.625 6.61051 87.7667 6.29385 88.05C5.97718 88.3167 5.81885 88.7083 5.81885 89.225C5.81885 89.7917 6.08551 90.2333 6.61885 90.55C7.15218 90.8667 7.98551 91.2083 9.11885 91.575C10.2522 91.9583 11.1688 92.325 11.8688 92.675C12.5855 93.025 13.2022 93.5333 13.7188 94.2C14.2355 94.8667 14.4938 95.725 14.4938 96.775C14.4938 97.775 14.2355 98.6833 13.7188 99.5C13.2188 100.317 12.4855 100.967 11.5188 101.45C10.5522 101.933 9.41051 102.175 8.09385 102.175ZM25.4247 102.175C23.7747 102.175 22.258 101.792 20.8747 101.025C19.508 100.258 18.4164 99.1917 17.5997 97.825C16.7997 96.4417 16.3997 94.8917 16.3997 93.175C16.3997 91.4583 16.7997 89.9167 17.5997 88.55C18.4164 87.1833 19.508 86.1167 20.8747 85.35C22.258 84.5833 23.7747 84.2 25.4247 84.2C27.0747 84.2 28.583 84.5833 29.9497 85.35C31.333 86.1167 32.4164 87.1833 33.1997 88.55C33.9997 89.9167 34.3997 91.4583 34.3997 93.175C34.3997 94.8917 33.9997 96.4417 33.1997 97.825C32.3997 99.1917 31.3164 100.258 29.9497 101.025C28.583 101.792 27.0747 102.175 25.4247 102.175ZM25.4247 98.275C26.8247 98.275 27.9414 97.8083 28.7747 96.875C29.6247 95.9417 30.0497 94.7083 30.0497 93.175C30.0497 91.625 29.6247 90.3917 28.7747 89.475C27.9414 88.5417 26.8247 88.075 25.4247 88.075C24.008 88.075 22.8747 88.5333 22.0247 89.45C21.1914 90.3667 20.7747 91.6083 20.7747 93.175C20.7747 94.725 21.1914 95.9667 22.0247 96.9C22.8747 97.8167 24.008 98.275 25.4247 98.275ZM41.053 98.7H46.653V102H36.778V84.45H41.053V98.7ZM59.6171 98.9H53.0671L52.0171 102H47.5421L53.8921 84.45H58.8421L65.1921 102H60.6671L59.6171 98.9ZM58.5171 95.6L56.3421 89.175L54.1921 95.6H58.5171ZM82.8247 102H78.5497L71.3997 91.175V102H67.1247V84.45H71.3997L78.5497 95.325V84.45H82.8247V102ZM96.8485 98.9H90.2985L89.2485 102H84.7735L91.1235 84.45H96.0735L102.424 102H97.8985L96.8485 98.9ZM95.7485 95.6L93.5735 89.175L91.4235 95.6H95.7485Z" fill="white"/>
<path d="M13.8465 52.2238V55H88.8755V52.2238H51.4518H13.8465Z" fill="white"/>
<path d="M96 20.0562C96 18.6103 94.83 17.4388 93.386 17.4388C91.9436 17.4388 90.7721 18.6103 90.7721 20.0562C90.7721 21.2293 91.5495 22.2112 92.6117 22.5426C92.3931 23.358 92.1068 24.3076 91.7404 25.3203C91.471 26.0633 91.1585 26.8387 90.7983 27.6172C90.6782 27.8761 90.5535 28.1351 90.4226 28.3941C90.1609 28.9105 89.8777 29.4238 89.5698 29.9247C89.2634 30.4257 88.9325 30.9128 88.5784 31.3799C87.901 32.2693 87.1329 33.0755 86.2662 33.7461C85.9968 33.9542 85.7212 34.153 85.4333 34.3334C85.1162 34.5307 84.7821 34.7003 84.4404 34.8575C82.9471 35.5434 81.2245 35.8332 79.2279 35.5018C78.2703 35.343 77.4298 35.0517 76.6909 34.6556C76.4446 34.523 76.2106 34.3796 75.9858 34.2255C73.749 32.6778 72.6083 30.0527 72.0649 27.3166C71.7385 25.6749 71.6292 23.9931 71.6261 22.4809C71.6261 21.9769 71.6369 21.4913 71.6554 21.032C71.6923 20.1626 71.757 19.3918 71.8247 18.766C72.9731 18.4901 73.8306 17.4619 73.8306 16.2272C73.8306 14.7812 72.6606 13.6097 71.2166 13.6097C69.7726 13.6097 68.6027 14.7812 68.6027 16.2272C68.6027 17.1258 69.0553 17.9182 69.7449 18.3899C69.7157 19.2885 69.6279 20.5726 69.3816 21.9676C68.9537 24.3893 68.0516 27.1393 66.1596 28.7656C66.0026 28.9012 65.8378 29.0291 65.6654 29.1478C64.808 29.7429 63.7704 30.1221 62.5173 30.1791C62.2664 30.1899 62.0077 30.1899 61.7399 30.1745C60.6992 30.1159 59.7694 29.8431 58.9412 29.3976C58.6656 29.2496 58.4008 29.0816 58.1468 28.895C57.3848 28.3386 56.7198 27.6218 56.1379 26.7848C55.7499 26.2267 55.4005 25.6179 55.0849 24.9658C54.7693 24.3153 54.4876 23.6232 54.2367 22.9018C53.9857 22.1804 53.7656 21.4312 53.5732 20.6651C53.3792 19.899 53.2145 19.1143 53.0713 18.3267C52.3863 14.5439 52.2431 10.6593 52.2477 7.98641C53.019 7.81068 53.7056 7.41914 54.2397 6.87346C54.2551 6.85804 54.2659 6.83955 54.2798 6.82413C54.4399 6.65611 54.5892 6.4773 54.717 6.28461C54.757 6.2245 54.7832 6.15667 54.8201 6.09501C54.914 5.93624 55.0095 5.77901 55.0803 5.6079C55.1326 5.48304 55.1619 5.34894 55.2004 5.21945C55.2373 5.09922 55.285 4.9836 55.3112 4.85874C55.3635 4.59978 55.3912 4.33156 55.3928 4.05563C55.3928 4.05409 55.3928 4.05255 55.3928 4.04947C55.3928 3.772 55.3651 3.50224 55.3112 3.24173C55.2866 3.11841 55.2388 3.00589 55.2034 2.88719C55.1634 2.75462 55.1342 2.61743 55.0803 2.49257C55.0095 2.32147 54.914 2.16424 54.8201 2.00547C54.7832 1.94381 54.757 1.87598 54.717 1.81586C54.5877 1.6201 54.4368 1.44128 54.2767 1.27172C54.2628 1.25785 54.2536 1.24089 54.2397 1.22702C53.5085 0.46861 52.4879 0 51.3548 0C49.1242 0 47.3154 1.81124 47.3154 4.04484C47.3154 6.0611 48.7917 7.71819 50.7191 8.02494C51.2009 14.772 51.2209 29.1201 42.7325 29.5995C35.8851 29.9864 33.7514 21.8104 33.1664 18.4854C33.95 18.0338 34.4842 17.1952 34.4842 16.2256C34.4842 14.7797 33.3142 13.6082 31.8702 13.6082C30.4262 13.6082 29.2562 14.7797 29.2562 16.2256C29.2562 17.3262 29.9351 18.2635 30.8957 18.6504C31.3622 22.6567 31.7794 33.1788 23.5326 34.5476C14.9872 35.9658 11.3249 26.7108 10.0672 22.2281C10.7646 21.758 11.2233 20.961 11.2233 20.0562C11.2233 18.6103 10.0533 17.4388 8.60934 17.4388C7.16997 17.4388 6 18.6103 6 20.0562C6 21.4158 7.04066 22.521 8.36457 22.649L13.6264 49.4291H51.4534H89.0972L94.3944 22.4702C95.3365 22.0755 96 21.1429 96 20.0562ZM18.2 45.9546L16.3435 41.2916L18.2 36.6302L20.0566 41.2916L18.2 45.9546ZM34.5996 45.9546L32.7431 41.2916L34.5996 36.6302L36.4562 41.2916L34.5996 45.9546ZM83.8 36.6286L85.6565 41.2901L83.8 45.9531L81.9434 41.2901L83.8 36.6286ZM67.4004 45.9531L65.5438 41.2901L67.4004 36.6286L69.2569 41.2901L67.4004 45.9531ZM49.1427 41.2901L50.9992 36.6286L52.8558 41.2901L50.9992 45.9531L49.1427 41.2901Z" fill="white"/>
</svg>
