<svg width="585" height="357" viewBox="0 0 585 357" fill="none" xmlns="http://www.w3.org/2000/svg">
<path d="M50.97 338.79V356.8H538.35V338.79H295.25H50.97Z" fill="white"/>
<path d="M584.63 130.11C584.63 120.73 577.03 113.13 567.65 113.13C558.28 113.13 550.67 120.73 550.67 130.11C550.67 137.72 555.72 144.09 562.62 146.24C561.2 151.53 559.34 157.69 556.96 164.26C555.21 169.08 553.18 174.11 550.84 179.16C550.06 180.84 549.25 182.52 548.4 184.2C546.7 187.55 544.86 190.88 542.86 194.13C540.87 197.38 538.72 200.54 536.42 203.57C532.02 209.34 527.03 214.57 521.4 218.92C519.65 220.27 517.86 221.56 515.99 222.73C513.93 224.01 511.76 225.11 509.54 226.13C499.84 230.58 488.65 232.46 475.68 230.31C469.46 229.28 464 227.39 459.2 224.82C457.6 223.96 456.08 223.03 454.62 222.03C440.09 211.99 432.68 194.96 429.15 177.21C427.03 166.56 426.32 155.65 426.3 145.84C426.3 142.57 426.37 139.42 426.49 136.44C426.73 130.8 427.15 125.8 427.59 121.74C435.05 119.95 440.62 113.28 440.62 105.27C440.62 95.89 433.02 88.29 423.64 88.29C414.26 88.29 406.66 95.89 406.66 105.27C406.66 111.1 409.6 116.24 414.08 119.3C413.89 125.13 413.32 133.46 411.72 142.51C408.94 158.22 403.08 176.06 390.79 186.61C389.77 187.49 388.7 188.32 387.58 189.09C382.01 192.95 375.27 195.41 367.13 195.78C365.5 195.85 363.82 195.85 362.08 195.75C355.32 195.37 349.28 193.6 343.9 190.71C342.11 189.75 340.39 188.66 338.74 187.45C333.79 183.84 329.47 179.19 325.69 173.76C323.17 170.14 320.9 166.19 318.85 161.96C316.8 157.74 314.97 153.25 313.34 148.57C311.71 143.89 310.28 139.03 309.03 134.06C307.77 129.09 306.7 124 305.77 118.89C301.32 94.35 300.39 69.15 300.42 51.81C305.43 50.67 309.89 48.13 313.36 44.59C313.46 44.49 313.53 44.37 313.62 44.27C314.66 43.18 315.63 42.02 316.46 40.77C316.72 40.38 316.89 39.94 317.13 39.54C317.74 38.51 318.36 37.49 318.82 36.38C319.16 35.57 319.35 34.7 319.6 33.86C319.84 33.08 320.15 32.33 320.32 31.52C320.66 29.84 320.84 28.1 320.85 26.31C320.85 26.3 320.85 26.29 320.85 26.27C320.85 24.47 320.67 22.72 320.32 21.03C320.16 20.23 319.85 19.5 319.62 18.73C319.36 17.87 319.17 16.98 318.82 16.17C318.36 15.06 317.74 14.04 317.13 13.01C316.89 12.61 316.72 12.17 316.46 11.78C315.62 10.51 314.64 9.35 313.6 8.25C313.51 8.16 313.45 8.05 313.36 7.96C308.61 3.04 301.98 0 294.62 0C280.13 0 268.38 11.75 268.38 26.24C268.38 39.32 277.97 50.07 290.49 52.06C293.62 95.83 293.75 188.91 238.61 192.02C194.13 194.53 180.27 141.49 176.47 119.92C181.56 116.99 185.03 111.55 185.03 105.26C185.03 95.88 177.43 88.28 168.05 88.28C158.67 88.28 151.07 95.88 151.07 105.26C151.07 112.4 155.48 118.48 161.72 120.99C164.75 146.98 167.46 215.24 113.89 224.12C58.38 233.32 34.59 173.28 26.42 144.2C30.95 141.15 33.93 135.98 33.93 130.11C33.93 120.73 26.33 113.13 16.95 113.13C7.6 113.13 0 120.73 0 130.11C0 138.93 6.76 146.1 15.36 146.93L49.54 320.66H295.26H539.79L574.2 145.77C580.32 143.21 584.63 137.16 584.63 130.11ZM79.25 298.12L67.19 267.87L79.25 237.63L91.31 267.87L79.25 298.12ZM185.78 298.12L173.72 267.87L185.78 237.63L197.84 267.87L185.78 298.12ZM505.38 237.62L517.44 267.86L505.38 298.11L493.32 267.86L505.38 237.62ZM398.85 298.11L386.79 267.86L398.85 237.62L410.91 267.86L398.85 298.11ZM280.25 267.86L292.31 237.62L304.37 267.86L292.31 298.11L280.25 267.86Z" fill="white"/>
</svg>
