<svg width="290" height="235" viewBox="0 0 290 235" fill="none" xmlns="http://www.w3.org/2000/svg">
<g clip-path="url(#clip0_5_120)">
<path d="M25.23 167.71V176.63H266.5V167.71H146.16H25.23Z" fill="white"/>
<path d="M289.41 64.41C289.41 59.77 285.65 56.01 281.01 56.01C276.37 56.01 272.6 59.77 272.6 64.41C272.6 68.18 275.1 71.33 278.52 72.4C277.82 75.02 276.9 78.07 275.72 81.32C274.85 83.71 273.85 86.2 272.69 88.69C272.3 89.52 271.9 90.35 271.48 91.18C270.64 92.84 269.73 94.49 268.74 96.1C267.75 97.71 266.69 99.27 265.55 100.77C263.37 103.63 260.9 106.22 258.12 108.37C257.25 109.04 256.37 109.68 255.44 110.25C254.42 110.88 253.35 111.43 252.25 111.93C247.45 114.13 241.91 115.06 235.49 114C232.41 113.49 229.71 112.56 227.33 111.28C226.54 110.86 225.78 110.39 225.07 109.9C217.88 104.93 214.21 96.5 212.46 87.71C211.41 82.44 211.06 77.04 211.05 72.18C211.05 70.56 211.08 69 211.14 67.53C211.26 64.74 211.47 62.26 211.68 60.25C215.38 59.37 218.13 56.06 218.13 52.1C218.13 47.46 214.37 43.7 209.72 43.7C205.08 43.7 201.32 47.46 201.32 52.1C201.32 54.99 202.78 57.53 204.99 59.04C204.9 61.92 204.61 66.05 203.82 70.53C202.44 78.31 199.54 87.14 193.46 92.36C192.95 92.79 192.42 93.21 191.87 93.59C189.11 95.5 185.78 96.72 181.75 96.9C180.94 96.94 180.11 96.93 179.25 96.88C175.9 96.69 172.91 95.82 170.25 94.38C169.36 93.9 168.51 93.36 167.69 92.77C165.24 90.98 163.1 88.68 161.23 85.99C159.98 84.2 158.86 82.24 157.85 80.15C156.84 78.06 155.93 75.84 155.12 73.52C154.31 71.2 153.61 68.8 152.98 66.34C152.36 63.88 151.82 61.36 151.37 58.83C149.17 46.68 148.71 34.21 148.72 25.62C151.2 25.06 153.41 23.8 155.12 22.04C155.17 21.99 155.2 21.93 155.25 21.88C155.76 21.34 156.24 20.77 156.66 20.15C156.79 19.96 156.87 19.74 156.99 19.54C157.29 19.03 157.6 18.53 157.83 17.98C158 17.58 158.09 17.15 158.22 16.73C158.34 16.34 158.49 15.97 158.57 15.57C158.74 14.74 158.83 13.88 158.83 12.99C158.83 12.98 158.83 12.98 158.83 12.97C158.83 12.08 158.74 11.21 158.57 10.37C158.49 9.98 158.34 9.61 158.22 9.23C158.09 8.8 158 8.37 157.83 7.96C157.6 7.41 157.29 6.91 156.99 6.4C156.87 6.2 156.79 5.98 156.66 5.79C156.24 5.16 155.76 4.59 155.24 4.04C155.2 3.99 155.16 3.94 155.12 3.9C152.77 1.51 149.49 0 145.85 0C138.68 0 132.86 5.82 132.86 12.99C132.86 19.46 137.61 24.79 143.81 25.77C145.36 47.44 145.42 93.52 118.13 95.06C96.1 96.3 89.24 70.04 87.36 59.37C89.88 57.92 91.6 55.23 91.6 52.11C91.6 47.47 87.84 43.71 83.19 43.71C78.54 43.71 74.79 47.47 74.79 52.11C74.79 55.64 76.97 58.65 80.06 59.9C81.56 72.76 82.9 106.56 56.38 110.95C28.9 115.5 17.13 85.78 13.08 71.39C15.32 69.88 16.8 67.32 16.8 64.41C16.8 59.77 13.04 56.01 8.4 56.01C3.76 56 0 59.77 0 64.41C0 68.78 3.34 72.33 7.61 72.73L24.53 158.73H146.17H267.22L284.25 72.16C287.28 70.89 289.41 67.9 289.41 64.41ZM39.23 147.58L33.26 132.6L39.23 117.63L45.2 132.6L39.23 147.58ZM91.97 147.58L86 132.6L91.97 117.63L97.94 132.6L91.97 147.58ZM250.18 117.63L256.15 132.6L250.18 147.58L244.21 132.6L250.18 117.63ZM197.44 147.58L191.47 132.6L197.44 117.63L203.41 132.6L197.44 147.58ZM138.73 132.6L144.7 117.63L150.67 132.6L144.7 147.58L138.73 132.6Z" fill="white"/>
</g>
<g clip-path="url(#clip1_5_120)">
<path d="M25 232.5H263.84" stroke="white" stroke-width="5" stroke-miterlimit="10"/>
</g>
<path d="M46.8131 218L40.2431 206.075H38.3981V218H30.7031V186.41H43.6181C46.1081 186.41 48.2231 186.845 49.9631 187.715C51.7331 188.585 53.0531 189.785 53.9231 191.315C54.7931 192.815 55.2281 194.495 55.2281 196.355C55.2281 198.455 54.6281 200.33 53.4281 201.98C52.2581 203.63 50.5181 204.8 48.2081 205.49L55.4981 218H46.8131ZM38.3981 200.63H43.1681C44.5781 200.63 45.6281 200.285 46.3181 199.595C47.0381 198.905 47.3981 197.93 47.3981 196.67C47.3981 195.47 47.0381 194.525 46.3181 193.835C45.6281 193.145 44.5781 192.8 43.1681 192.8H38.3981V200.63ZM74.9986 218.315C72.0286 218.315 69.2986 217.625 66.8086 216.245C64.3486 214.865 62.3836 212.945 60.9136 210.485C59.4736 207.995 58.7536 205.205 58.7536 202.115C58.7536 199.025 59.4736 196.25 60.9136 193.79C62.3836 191.33 64.3486 189.41 66.8086 188.03C69.2986 186.65 72.0286 185.96 74.9986 185.96C77.9686 185.96 80.6836 186.65 83.1436 188.03C85.6336 189.41 87.5836 191.33 88.9936 193.79C90.4336 196.25 91.1536 199.025 91.1536 202.115C91.1536 205.205 90.4336 207.995 88.9936 210.485C87.5536 212.945 85.6036 214.865 83.1436 216.245C80.6836 217.625 77.9686 218.315 74.9986 218.315ZM74.9986 211.295C77.5186 211.295 79.5286 210.455 81.0286 208.775C82.5586 207.095 83.3236 204.875 83.3236 202.115C83.3236 199.325 82.5586 197.105 81.0286 195.455C79.5286 193.775 77.5186 192.935 74.9986 192.935C72.4486 192.935 70.4086 193.76 68.8786 195.41C67.3786 197.06 66.6286 199.295 66.6286 202.115C66.6286 204.905 67.3786 207.14 68.8786 208.82C70.4086 210.47 72.4486 211.295 74.9986 211.295ZM115.1 212.42H103.31L101.42 218H93.3645L104.795 186.41H113.705L125.135 218H116.99L115.1 212.42ZM113.12 206.48L109.205 194.915L105.335 206.48H113.12ZM140.448 186.41C143.778 186.41 146.688 187.07 149.178 188.39C151.668 189.71 153.588 191.57 154.938 193.97C156.318 196.34 157.008 199.085 157.008 202.205C157.008 205.295 156.318 208.04 154.938 210.44C153.588 212.84 151.653 214.7 149.133 216.02C146.643 217.34 143.748 218 140.448 218H128.613V186.41H140.448ZM139.953 211.34C142.863 211.34 145.128 210.545 146.748 208.955C148.368 207.365 149.178 205.115 149.178 202.205C149.178 199.295 148.368 197.03 146.748 195.41C145.128 193.79 142.863 192.98 139.953 192.98H136.308V211.34H139.953ZM197.084 186.41V218H189.389V199.055L182.324 218H176.114L169.004 199.01V218H161.309V186.41H170.399L179.264 208.28L188.039 186.41H197.084ZM222.282 212.42H210.492L208.602 218H200.547L211.977 186.41H220.887L232.317 218H224.172L222.282 212.42ZM220.302 206.48L216.387 194.915L212.517 206.48H220.302ZM259.871 196.58C259.871 198.41 259.451 200.09 258.611 201.62C257.771 203.12 256.481 204.335 254.741 205.265C253.001 206.195 250.841 206.66 248.261 206.66H243.491V218H235.796V186.41H248.261C250.781 186.41 252.911 186.845 254.651 187.715C256.391 188.585 257.696 189.785 258.566 191.315C259.436 192.845 259.871 194.6 259.871 196.58ZM247.676 200.54C249.146 200.54 250.241 200.195 250.961 199.505C251.681 198.815 252.041 197.84 252.041 196.58C252.041 195.32 251.681 194.345 250.961 193.655C250.241 192.965 249.146 192.62 247.676 192.62H243.491V200.54H247.676Z" fill="white"/>
<defs>
<clipPath id="clip0_5_120">
<rect width="289.41" height="176.63" fill="white"/>
</clipPath>
<clipPath id="clip1_5_120">
<rect width="238.84" height="5" fill="white" transform="translate(25 230)"/>
</clipPath>
</defs>
</svg>
