<svg width="51" height="39" viewBox="0 0 51 39" fill="none" xmlns="http://www.w3.org/2000/svg">
<path d="M43.01 3.44998C39.75 1.94998 36.31 0.889978 32.78 0.289978C32.33 1.06998 31.82 2.12998 31.47 2.97998C27.71 2.41998 23.89 2.41998 20.13 2.97998C19.73 2.05998 19.28 1.15998 18.78 0.289978C15.24 0.889978 11.8 1.95999 8.54001 3.45999C2.08001 13.09 0.330011 22.49 1.20001 31.74C4.99001 34.56 9.24001 36.7 13.75 38.08C14.77 36.7 15.67 35.24 16.44 33.72C14.97 33.17 13.56 32.5 12.21 31.7C12.56 31.43 12.9 31.17 13.23 30.9C21.18 34.66 30.39 34.66 38.34 30.9C38.68 31.18 39.03 31.45 39.38 31.71C38.03 32.51 36.61 33.19 35.14 33.74C35.91 35.26 36.81 36.72 37.83 38.09C42.35 36.72 46.6 34.58 50.38 31.75C51.42 21.02 48.63 11.7 43.01 3.44998ZM17.56 26.06C15.11 26.06 13.1 23.82 13.1 21.07C13.1 18.32 15.06 16.06 17.56 16.06C20.05 16.06 22.04 18.3 22.02 21.06C22 23.81 20.05 26.06 17.56 26.06ZM34.04 26.06C31.59 26.06 29.58 23.82 29.58 21.07C29.58 18.32 31.54 16.06 34.04 16.06C36.53 16.06 38.52 18.3 38.5 21.06C38.47 23.81 36.53 26.06 34.04 26.06Z" fill="white"/>
</svg>
