<svg width="43" height="43" viewBox="0 0 43 43" fill="none" xmlns="http://www.w3.org/2000/svg">
<path d="M32.99 7.58002C31.62 7.58002 30.51 8.69001 30.51 10.06C30.51 11.43 31.62 12.54 32.99 12.54C34.36 12.54 35.47 11.43 35.47 10.06C35.48 8.69001 34.37 7.58002 32.99 7.58002Z" fill="white"/>
<path d="M21.96 10.76C16.21 10.76 11.53 15.44 11.53 21.19C11.53 26.94 16.21 31.62 21.96 31.62C27.71 31.62 32.39 26.94 32.39 21.19C32.39 15.44 27.71 10.76 21.96 10.76ZM21.96 27.86C18.28 27.86 15.28 24.86 15.28 21.18C15.28 17.5 18.28 14.5 21.96 14.5C25.64 14.5 28.64 17.5 28.64 21.18C28.64 24.87 25.64 27.86 21.96 27.86Z" fill="white"/>
<path d="M30.24 42.35H13.34C6.33 42.35 0.619995 36.65 0.619995 29.63V12.73C0.619995 5.72001 6.32 0.0100098 13.34 0.0100098H30.24C37.25 0.0100098 42.96 5.71001 42.96 12.73V29.63C42.95 36.65 37.25 42.35 30.24 42.35ZM13.34 4.00002C8.52 4.00002 4.61 7.92001 4.61 12.73V29.63C4.61 34.45 8.53 38.36 13.34 38.36H30.24C35.06 38.36 38.97 34.44 38.97 29.63V12.73C38.97 7.91001 35.05 4.00002 30.24 4.00002H13.34Z" fill="white"/>
</svg>
