<svg width="47" height="39" viewBox="0 0 47 39" fill="none" xmlns="http://www.w3.org/2000/svg">
<path d="M2.86002 16.72C2.86002 16.72 23.3 8.33 30.39 5.38C33.11 4.2 42.32 0.420001 42.32 0.420001C42.32 0.420001 46.57 -1.23 46.22 2.78C46.1 4.43 45.16 10.22 44.21 16.48C42.79 25.34 41.26 35.03 41.26 35.03C41.26 35.03 41.02 37.75 39.02 38.22C37.01 38.69 33.7 36.57 33.11 36.09C32.64 35.74 24.25 30.42 21.18 27.82C20.35 27.11 19.41 25.69 21.3 24.04C25.55 20.14 30.63 15.3 33.7 12.23C35.12 10.81 36.54 7.5 30.63 11.52C22.24 17.31 13.97 22.74 13.97 22.74C13.97 22.74 12.08 23.92 8.54002 22.86C5.00002 21.8 0.860015 20.38 0.860015 20.38C0.860015 20.38 -1.97998 18.61 2.86002 16.72Z" fill="white"/>
</svg>
