<svg width="43" height="36" viewBox="0 0 43 36" fill="none" xmlns="http://www.w3.org/2000/svg">
<path d="M42.26 5.12C40.93 5.72 39.47 6.08 38.04 6.32C38.72 6.21 39.72 4.98 40.12 4.48C40.73 3.72 41.24 2.86 41.52 1.92C41.56 1.85 41.58 1.76 41.51 1.7C41.42 1.66 41.36 1.68 41.29 1.72C39.69 2.58 38.04 3.2 36.28 3.64C36.13 3.68 36.03 3.64 35.93 3.55C35.78 3.39 35.65 3.23 35.49 3.1C34.75 2.47 33.96 1.98 33.06 1.61C31.89 1.13 30.6 0.930002 29.34 1.01C28.11 1.09 26.9 1.44 25.81 2.01C24.72 2.58 23.74 3.38 22.96 4.34C22.16 5.33 21.56 6.5 21.26 7.75C20.97 8.95 20.99 10.13 21.17 11.35C21.2 11.55 21.18 11.58 21 11.55C14.13 10.52 8.42999 8.06 3.79999 2.78C3.59999 2.56 3.48999 2.56 3.32999 2.8C1.29999 5.84 2.27999 10.71 4.80999 13.11C5.14999 13.43 5.48999 13.75 5.86999 14.04C5.72999 14.07 4.04999 13.89 2.54999 13.11C2.34999 12.98 2.24999 13.06 2.22999 13.28C2.20999 13.61 2.23999 13.91 2.27999 14.27C2.66999 17.35 4.79999 20.19 7.71999 21.3C8.06999 21.45 8.44999 21.57 8.81999 21.64C8.15999 21.79 7.46999 21.89 5.55999 21.74C5.31999 21.69 5.22999 21.81 5.31999 22.04C6.74999 25.94 9.84999 27.11 12.16 27.77C12.47 27.82 12.78 27.82 13.09 27.9C13.07 27.93 13.05 27.93 13.03 27.96C12.26 29.13 9.59999 30 8.35999 30.44C6.09999 31.23 3.64999 31.58 1.25999 31.35C0.879994 31.29 0.799994 31.3 0.689994 31.35C0.589994 31.41 0.679993 31.51 0.799993 31.6C1.27999 31.92 1.77999 32.2 2.27999 32.48C3.78999 33.28 5.36999 33.92 7.01999 34.38C15.54 36.73 25.15 35 31.55 28.65C36.58 23.66 38.34 16.77 38.34 9.87C38.34 9.6 38.66 9.45 38.85 9.31C40.16 8.33 41.21 7.15 42.19 5.84C42.41 5.55 42.41 5.28 42.41 5.17C42.41 5.15 42.41 5.13 42.41 5.13C42.43 5.01 42.43 5.04 42.26 5.12Z" fill="white"/>
</svg>
